<svg width="1000" height="1000" viewBox="0 0 1000 1000" xmlns="http://www.w3.org/2000/svg"><defs/><path fill="#1d73bf" transform="matrix(0.6107466004958504 0 0 0.6107466004958504 24.99006824816641 40.91109727564856)" d="M 447.58379463814 565.28474511627 L 359.98379463814 574.18474511627 L 389.18379463814 588.58474511627 L 204.68379463814 782.08474511627 Z"/><path fill="#1d73bf" transform="matrix(0.6107466004958504 0 0 0.6107466004958504 24.99006824816641 40.91109727564856)" d="M 545.48379463814 750.58474511627 L 545.48379463814 554.48474511627 L 494.68379463814 554.48474511627 L 494.68379463814 726.08474511627 C 487.68379463814 724.68474511627 480.38379463814 723.98474511627 472.98379463814 723.98474511627 L 472.98379463814 620.88474511627 L 422.18379463814 620.88474511627 L 422.18379463814 736.18474511627 C 414.38379463814 740.18474511627 407.08379463814 744.98474511627 400.48379463814 750.58474511627 L 400.48379463814 687.48474511627 L 349.68379463814 687.48474511627 L 349.68379463814 912.58474511627 L 390.28379463814 912.58474511627 C 410.88379463814 934.88474511627 440.28379463814 948.88474511627 472.88379463814 948.88474511627 C 534.88379463814 948.88474511627 585.28379463814 898.48474511627 585.28379463814 836.48474511627 C 585.38379463814 802.08474511627 569.88379463814 771.18474511627 545.48379463814 750.58474511627 Z M 472.98379463814 937.08474511627 C 417.48379463814 937.08474511627 372.38379463814 891.98474511627 372.38379463814 836.48474511627 C 372.38379463814 780.98474511627 417.48379463814 735.88474511627 472.98379463814 735.88474511627 C 528.48379463814 735.88474511627 573.58379463814 780.98474511627 573.58379463814 836.48474511627 C 573.58379463814 891.98474511627 528.38379463814 937.08474511627 472.98379463814 937.08474511627 Z"/><path fill="#1d73bf" transform="matrix(0.6107466004958504 0 0 0.6107466004958504 24.99006824816641 40.91109727564856)" d="M 457.98379463814 798.48474511627 C 457.98379463814 808.64678451316 449.74583403503 816.88474511627 439.58379463814 816.88474511627 C 429.42175524125 816.88474511627 421.18379463814 808.64678451316 421.18379463814 798.48474511627 C 421.18379463814 788.32270571938 429.42175524125 780.08474511627 439.58379463814 780.08474511627 C 449.74583403503 780.08474511627 457.98379463814 788.32270571938 457.98379463814 798.48474511627 Z"/><path fill="#1d73bf" transform="matrix(0.6107466004958504 0 0 0.6107466004958504 24.99006824816641 40.91109727564856)" d="M 528.68379463814 780.08474511627 L 502.28379463814 780.08474511627 C 499.28379463814 780.08474511627 495.48379463814 781.98474511627 493.68379463814 784.38474511627 L 415.08379463814 888.38474511627 C 413.28379463814 890.78474511627 414.28379463814 892.68474511627 417.18379463814 892.68474511627 L 443.58379463814 892.68474511627 C 446.58379463814 892.68474511627 450.38379463814 890.78474511627 452.18379463814 888.38474511627 L 530.78379463814 784.38474511627 C 532.68379463814 782.08474511627 531.68379463814 780.08474511627 528.68379463814 780.08474511627 Z"/><path fill="#1d73bf" transform="matrix(0.6107466004958504 0 0 0.6107466004958504 24.99006824816641 40.91109727564856)" d="M 524.08379463814 874.68474511627 C 524.08379463814 884.68109908821 515.98014861008 892.78474511627 505.98379463814 892.78474511627 C 495.9874406662 892.78474511627 487.88379463814 884.68109908821 487.88379463814 874.68474511627 C 487.88379463814 864.68839114433 495.9874406662 856.58474511627 505.98379463814 856.58474511627 C 515.98014861008 856.58474511627 524.08379463814 864.68839114433 524.08379463814 874.68474511627 Z"/><path fill="#1d73bf" transform="matrix(0.6107466004958504 0 0 0.6107466004958504 24.99006824816641 40.91109727564856)" d="M 204.68379463814 820.78474511627 L 255.48379463814 820.78474511627 L 255.48379463814 912.58474511627 L 204.68379463814 912.58474511627 Z"/><path fill="#1d73bf" transform="matrix(0.6107466004958504 0 0 0.6107466004958504 24.99006824816641 40.91109727564856)" d="M 277.18379463814 754.18474511627 L 327.98379463814 754.18474511627 L 327.98379463814 912.68474511627 L 277.18379463814 912.68474511627 Z"/><path id="text" fill="#044162" transform="matrix(1.1895232554842639 0 0 1.1895232554842639 331.1763624019941 104.34064239908325)" d="M 75.50473735858 322.68261127293 C 75.50473735858 310.99511127293 78.70786235858 301.40136127293 85.11411235858 293.90136127293 C 91.52036235858 286.40136127293 100.09848735858 282.65136127293 110.84848735858 282.65136127293 C 115.03598735858 282.65136127293 118.91098735858 283.35448627293 122.47348735858 284.76073627293 C 126.03598735858 286.16698627293 128.95786235858 287.99511127293 131.23911235858 290.24511127293 C 133.52036235858 292.49511127293 135.34848735858 294.58886127293 136.72348735858 296.52636127293 C 138.09848735858 298.46386127293 139.16098735858 300.37011127293 139.91098735858 302.24511127293 L 126.50473735858 306.46386127293 C 125.50473735858 304.96386127293 124.66098735858 303.77636127293 123.97348735858 302.90136127293 C 123.28598735858 302.02636127293 122.28598735858 300.96386127293 120.97348735858 299.71386127293 C 119.66098735858 298.46386127293 118.17661235858 297.54198627293 116.52036235858 296.94823627293 C 114.86411235858 296.35448627293 113.00473735858 296.05761127293 110.94223735858 296.05761127293 C 104.87973735858 296.05761127293 100.12973735858 298.46386127293 96.69223735858 303.27636127293 C 93.25473735858 308.08886127293 91.53598735858 314.55761127293 91.53598735858 322.68261127293 C 91.53598735858 330.80761127293 93.31723735858 337.30761127293 96.87973735858 342.18261127293 C 100.44223735858 347.05761127293 104.94223735858 349.49511127293 110.37973735858 349.49511127293 C 114.94223735858 349.49511127293 118.58286235858 348.30761127293 121.30161235858 345.93261127293 C 124.02036235858 343.55761127293 125.66098735858 340.37011127293 126.22348735858 336.37011127293 C 126.47348735858 334.74511127293 126.59848735858 332.83886127293 126.59848735858 330.65136127293 L 109.53598735858 330.65136127293 L 109.53598735858 317.33886127293 L 141.69223735858 317.33886127293 L 141.69223735858 361.12011127293 L 131.09848735858 361.12011127293 L 129.69223735858 355.30761127293 C 125.50473735858 360.30761127293 118.87973735858 362.80761127293 109.81723735858 362.80761127293 C 100.12973735858 362.80761127293 91.98911235858 359.16698627293 85.39536235858 351.88573627293 C 78.80161235858 344.60448627293 75.50473735858 334.87011127293 75.50473735858 322.68261127293 Z M 152.37973735858 298.68261127293 L 152.37973735858 283.30761127293 L 167.47348735858 283.30761127293 L 167.47348735858 298.68261127293 L 152.37973735858 298.68261127293 Z M 152.56723735858 361.12011127293 L 152.56723735858 304.68261127293 L 167.37973735858 304.68261127293 L 167.37973735858 361.12011127293 L 152.56723735858 361.12011127293 Z M 176.75473735858 332.80761127293 C 176.75473735858 323.49511127293 179.02036235858 316.19823627293 183.55161235858 310.91698627293 C 188.08286235858 305.63573627293 193.91098735858 302.99511127293 201.03598735858 302.99511127293 C 206.28598735858 302.99511127293 210.50473735858 304.93261127293 213.69223735858 308.80761127293 L 213.69223735858 281.99511127293 L 228.59848735858 281.99511127293 L 228.59848735858 361.12011127293 L 214.06723735858 361.12011127293 L 214.06723735858 355.49511127293 C 212.94223735858 357.43261127293 211.16098735858 359.13573627293 208.72348735858 360.60448627293 C 206.28598735858 362.07323627293 203.69223735858 362.80761127293 200.94223735858 362.80761127293 C 197.94223735858 362.80761127293 195.05161235858 362.24511127293 192.27036235858 361.12011127293 C 189.48911235858 359.99511127293 186.91098735858 358.30761127293 184.53598735858 356.05761127293 C 182.16098735858 353.80761127293 180.27036235858 350.68261127293 178.86411235858 346.68261127293 C 177.45786235858 342.68261127293 176.75473735858 338.05761127293 176.75473735858 332.80761127293 Z M 192.12973735858 332.80761127293 C 192.12973735858 338.37011127293 193.11411235858 342.63573627293 195.08286235858 345.60448627293 C 197.05161235858 348.57323627293 199.72348735858 350.05761127293 203.09848735858 350.05761127293 C 206.41098735858 350.05761127293 209.02036235858 348.52636127293 210.92661235858 345.46386127293 C 212.83286235858 342.40136127293 213.78598735858 338.18261127293 213.78598735858 332.80761127293 C 213.78598735858 327.68261127293 212.87973735858 323.55761127293 211.06723735858 320.43261127293 C 209.25473735858 317.30761127293 206.59848735858 315.74511127293 203.09848735858 315.74511127293 C 199.47348735858 315.74511127293 196.73911235858 317.29198627293 194.89536235858 320.38573627293 C 193.05161235858 323.47948627293 192.12973735858 327.62011127293 192.12973735858 332.80761127293 Z M 241.25473735858 298.68261127293 L 241.25473735858 283.30761127293 L 256.34848735858 283.30761127293 L 256.34848735858 298.68261127293 L 241.25473735858 298.68261127293 Z M 241.44223735858 361.12011127293 L 241.44223735858 304.68261127293 L 256.25473735858 304.68261127293 L 256.25473735858 361.12011127293 L 241.44223735858 361.12011127293 Z M 283.81723735858 332.80761127293 C 283.81723735858 338.12011127293 284.77036235858 342.32323627293 286.67661235858 345.41698627293 C 288.58286235858 348.51073627293 291.25473735858 350.05761127293 294.69223735858 350.05761127293 C 298.00473735858 350.05761127293 300.64536235858 348.57323627293 302.61411235858 345.60448627293 C 304.58286235858 342.63573627293 305.56723735858 338.37011127293 305.56723735858 332.80761127293 C 305.56723735858 327.43261127293 304.61411235858 323.24511127293 302.70786235858 320.24511127293 C 300.80161235858 317.24511127293 298.12973735858 315.74511127293 294.69223735858 315.74511127293 C 291.12973735858 315.74511127293 288.42661235858 317.30761127293 286.58286235858 320.43261127293 C 284.73911235858 323.55761127293 283.81723735858 327.68261127293 283.81723735858 332.80761127293 Z M 269.09848735858 383.24511127293 L 269.09848735858 304.68261127293 L 283.44223735858 304.68261127293 L 283.44223735858 310.21386127293 C 286.87973735858 305.40136127293 291.34848735858 302.99511127293 296.84848735858 302.99511127293 C 303.78598735858 302.99511127293 309.53598735858 305.65136127293 314.09848735858 310.96386127293 C 318.66098735858 316.27636127293 320.94223735858 323.55761127293 320.94223735858 332.80761127293 C 320.94223735858 338.05761127293 320.19223735858 342.69823627293 318.69223735858 346.72948627293 C 317.19223735858 350.76073627293 315.22348735858 353.90136127293 312.78598735858 356.15136127293 C 310.34848735858 358.40136127293 307.78598735858 360.07323627293 305.09848735858 361.16698627293 C 302.41098735858 362.26073627293 299.66098735858 362.80761127293 296.84848735858 362.80761127293 C 293.53598735858 362.80761127293 290.81723735858 362.15136127293 288.69223735858 360.83886127293 C 286.56723735858 359.52636127293 285.00473735858 358.05761127293 284.00473735858 356.43261127293 L 284.00473735858 383.24511127293 L 269.09848735858 383.24511127293 Z M 341.75473735858 344.43261127293 C 341.75473735858 346.12011127293 342.41098735858 347.54198627293 343.72348735858 348.69823627293 C 345.03598735858 349.85448627293 346.72348735858 350.43261127293 348.78598735858 350.43261127293 C 352.09848735858 350.43261127293 354.91098735858 349.30761127293 357.22348735858 347.05761127293 C 359.53598735858 344.80761127293 360.69223735858 341.80761127293 360.69223735858 338.05761127293 L 360.69223735858 334.30761127293 C 357.06723735858 335.18261127293 354.19223735858 335.77636127293 352.06723735858 336.08886127293 C 345.19223735858 337.08886127293 341.75473735858 339.87011127293 341.75473735858 344.43261127293 Z M 326.56723735858 345.74511127293 C 326.56723735858 340.62011127293 328.53598735858 336.37011127293 332.47348735858 332.99511127293 C 336.41098735858 329.62011127293 342.19223735858 327.37011127293 349.81723735858 326.24511127293 C 356.06723735858 325.24511127293 359.69223735858 324.58886127293 360.69223735858 324.27636127293 L 360.69223735858 321.37011127293 C 360.69223735858 319.05761127293 359.89536235858 317.35448627293 358.30161235858 316.26073627293 C 356.70786235858 315.16698627293 354.62973735858 314.62011127293 352.06723735858 314.62011127293 C 346.19223735858 314.62011127293 341.12973735858 316.93261127293 336.87973735858 321.55761127293 L 328.06723735858 313.96386127293 C 334.19223735858 306.65136127293 342.12973735858 302.99511127293 351.87973735858 302.99511127293 C 360.50473735858 302.99511127293 366.62973735858 305.05761127293 370.25473735858 309.18261127293 C 373.87973735858 313.30761127293 375.69223735858 319.15136127293 375.69223735858 326.71386127293 L 375.69223735858 361.12011127293 L 361.16098735858 361.12011127293 L 361.16098735858 355.30761127293 C 360.03598735858 357.43261127293 358.16098735858 359.21386127293 355.53598735858 360.65136127293 C 352.91098735858 362.08886127293 349.91098735858 362.80761127293 346.53598735858 362.80761127293 C 340.41098735858 362.80761127293 335.55161235858 361.22948627293 331.95786235858 358.07323627293 C 328.36411235858 354.91698627293 326.56723735858 350.80761127293 326.56723735858 345.74511127293 Z M 381.22348735858 304.68261127293 L 397.34848735858 304.68261127293 L 405.78598735858 331.30761127293 C 406.97348735858 335.30761127293 408.06723735858 339.37011127293 409.06723735858 343.49511127293 L 409.34848735858 343.49511127293 C 410.22348735858 339.87011127293 411.25473735858 335.80761127293 412.44223735858 331.30761127293 L 420.03598735858 304.68261127293 L 436.16098735858 304.68261127293 L 413.28598735858 367.30761127293 C 411.16098735858 373.18261127293 408.28598735858 377.30761127293 404.66098735858 379.68261127293 C 401.03598735858 382.05761127293 396.50473735858 383.24511127293 391.06723735858 383.24511127293 L 386.84848735858 383.24511127293 L 386.84848735858 370.68261127293 L 388.62973735858 370.68261127293 C 391.75473735858 370.68261127293 394.20786235858 370.15136127293 395.98911235858 369.08886127293 C 397.77036235858 368.02636127293 399.12973735858 366.18261127293 400.06723735858 363.55761127293 L 401.84848735858 358.49511127293 L 381.22348735858 304.68261127293 Z"/></svg>